<svg width="333" height="236" viewBox="0 0 333 236" fill="none" xmlns="http://www.w3.org/2000/svg">
<g clip-path="url(#clip0_124_1051)">
<path d="M200.821 145.493C200.913 145.693 201.001 145.889 201.092 146.09H289.597C292.584 146.09 292.711 146.238 292.711 149.87C292.711 158.418 292.715 166.96 292.707 175.514C292.703 178.378 292.421 178.725 290.089 178.725C243.676 178.725 197.259 179.528 150.855 178.681C150.408 178.672 148.749 178.676 148.377 177.653C148.074 176.826 148.721 175.616 149.515 174.534C195.515 117.686 241.514 60.8364 287.515 3.98254H151.553V29.5039C181.687 29.5039 211.821 29.5088 241.955 29.5088C242.899 29.6508 243.7 30.439 244.005 31.5356C244.295 32.5637 244.108 33.7093 243.526 34.5415C214.023 70.9852 184.523 107.428 155.02 143.872C154.374 144.759 153.39 144.906 152.834 144.421C152.168 143.833 152.01 142.233 152.89 141.175C182.032 105.196 211.178 69.2227 240.321 33.2442H237.917C209.08 33.2442 180.244 33.2393 151.407 33.2393C151.26 33.2539 149.998 33.3764 149.094 32.1573C148.325 31.1194 148.372 29.8564 148.384 29.6312C148.384 20.8483 148.384 12.0654 148.384 3.28246C148.377 3.09642 148.353 1.88718 149.133 0.966781C149.832 0.144302 150.685 0.139405 150.855 0.139405C187.685 0.0561778 286.852 -0.149444 290.446 0.183465C290.879 0.22263 292.159 0.340127 292.509 1.27031C292.898 2.3131 291.91 3.81608 291.56 4.33992C269.153 38.4287 177.261 145.488 177.261 145.488C169.779 154.721 162.299 163.95 154.822 173.183C154.464 173.624 154.135 174.083 153.596 174.789H289.542V149.821H198.561C197.744 150.081 196.883 149.709 196.383 148.886C195.907 148.098 195.84 147.03 196.22 146.154C226.184 109.187 256.148 72.2238 286.111 35.2563C286.722 34.7717 287.527 34.8744 288.039 35.4913C288.566 36.1278 288.653 37.1607 288.232 37.9343C259.099 73.7856 229.961 109.642 200.821 145.493Z" fill="black"/>
<path d="M325.234 13.7103C325.825 13.3481 326.265 12.8389 326.559 12.1731C326.853 11.5171 326.999 10.7533 326.999 9.88682C326.999 9.01539 326.857 8.24186 326.563 7.57115C326.269 6.90533 325.829 6.38149 325.242 5.99964C324.652 5.62266 323.914 5.43173 323.021 5.43173H318.924V19.6293H320.661V14.2538H323.017C323.053 14.2538 323.089 14.2538 323.124 14.2489L325.464 19.6293H327.439L324.893 13.8866C325.013 13.8426 325.127 13.7789 325.234 13.7103ZM324.227 12.1193C323.873 12.3151 323.413 12.4131 322.855 12.4131H320.653V7.27252H322.831C323.402 7.27252 323.866 7.38023 324.219 7.59074C324.575 7.80125 324.834 8.10479 325 8.49155C325.167 8.8881 325.254 9.3483 325.254 9.88682C325.254 10.4155 325.167 10.8708 325.004 11.2527C324.841 11.6297 324.584 11.9185 324.227 12.1193ZM322.494 0.139465C316.698 0.139465 311.986 5.95557 311.986 13.1082C311.986 20.2608 316.698 26.077 322.494 26.077C328.289 26.077 333 20.2608 333 13.1082C333 5.95557 328.285 0.139465 322.494 0.139465ZM322.494 25.5237C316.948 25.5237 312.434 19.9573 312.434 13.1082C312.434 6.2591 316.944 0.692682 322.494 0.692682C328.043 0.692682 332.553 6.2591 332.553 13.1082C332.553 19.9573 328.038 25.5237 322.494 25.5237Z" fill="black"/>
<path d="M3.12167 6.39115V109.319H141.023V84.1301H27.4406C26.5759 84.1301 25.8778 83.2685 25.8778 82.2012V53.9431C25.8778 52.8759 26.5759 52.0142 27.4406 52.0142C28.3053 52.0142 29.0035 52.8759 29.0035 53.9431V80.2723H142.586C143.451 80.2723 144.149 81.134 144.149 82.2012V111.243C144.149 112.31 143.451 113.172 142.586 113.172H3.12167V172.64L25.5169 146.594C25.8064 146.261 26.1951 146.065 26.5878 146.065H142.511C143.363 146.065 144.074 146.927 144.074 147.995V176.958C144.074 178.024 143.367 178.887 142.511 178.887H48.4316C47.5669 178.887 46.8688 178.024 46.8688 176.958C46.8688 175.906 47.5669 175.029 48.4316 175.029H140.952V149.919H27.2146L2.63379 178.51C2.34424 178.857 1.95551 179.038 1.56282 179.038C1.35656 179.038 1.14633 178.985 0.948012 178.872C0.376828 178.578 0 177.868 0 177.114V1.99969C0 1.24086 0.364917 0.550566 0.9361 0.242137C1.49936 -0.0662926 2.16573 0.0610066 2.62189 0.589743L28.0237 29.3863H141.023V3.98246H48.4316C47.5669 3.98246 46.8688 3.12082 46.8688 2.05356C46.8688 0.986292 47.5669 0.124645 48.4316 0.124645H142.586C143.451 0.124645 144.149 0.986292 144.149 2.05356V31.3103C144.149 32.3776 143.451 33.2393 142.586 33.2393H27.4207C27.0241 33.2393 26.6512 33.0581 26.3697 32.7252L3.12167 6.39115Z" fill="black"/>
<path d="M12.5984 214.292H7.83458V229.425H4.97865V214.292H0.214844V210.768H12.5984V214.292Z" fill="black"/>
<path d="M22.3323 215.458V218.724C21.7453 218.439 20.9679 218.282 20.1468 218.361C19.3297 218.439 18.7386 218.802 18.342 219.32C17.8382 219.996 17.6082 220.926 17.6082 221.965V229.425H14.7324V215.433H17.2512V217.348C17.5447 216.726 17.9414 216.182 18.4689 215.796C19.0758 215.331 19.77 215.12 20.4403 215.071C21.0512 215.018 21.7056 215.15 22.3323 215.458Z" fill="black"/>
<path d="M25.1204 218.023C25.1838 217.921 25.2671 217.739 25.3504 217.607C26.3778 215.82 27.9327 215.066 29.8009 215.066C31.8794 215.066 33.5573 215.922 34.4815 217.837C34.9218 218.743 35.0884 219.781 35.0884 220.637V229.421H32.5894V227.036C32.3792 227.785 31.6851 228.563 31.1812 228.926C30.384 229.523 29.3963 229.777 28.5356 229.777C27.421 229.777 26.2668 229.102 25.6598 228.225C25.0728 227.217 24.7793 226.517 24.7793 225.299C24.7793 223.795 25.5369 222.317 26.6039 221.538C27.8653 220.71 28.7458 220.687 30.3602 220.373L32.1849 220.06C32.0817 219.516 31.7644 219.051 31.3439 218.763C30.8799 218.425 30.3127 218.297 29.7255 218.322C28.9918 218.322 28.381 218.528 27.9406 219.178C27.8573 219.281 27.774 219.414 27.7105 219.541L25.1204 218.023ZM30.1579 223.389C28.9403 223.672 27.659 223.962 27.6194 225.073C27.5757 225.9 28.1865 226.625 29.1108 226.575C30.3086 226.522 31.7564 225.797 32.1134 224.113C32.2404 223.546 32.2603 223.026 32.2603 222.894L30.1579 223.389Z" fill="black"/>
<path d="M42.395 210.381V213.489H39.5391V210.381H42.395ZM42.395 215.433V229.425H39.5391V215.433H42.395Z" fill="black"/>
<path d="M57.6752 222.43V229.425H54.7796V222.43C54.7796 221.161 54.613 219.966 54.0259 219.242C53.6253 218.724 53.0185 218.464 52.241 218.464C51.7174 218.489 51.2771 218.674 50.8964 219.007C50.4759 219.393 50.1824 220.016 50.0554 220.794C49.9523 221.415 49.9285 222.376 49.9285 223.335V229.425H47.0527V215.433H49.5716V216.392C50.4759 215.511 51.6064 215.095 52.6376 215.047C53.8951 214.993 55.2398 215.59 56.1441 216.599C57.4887 218.131 57.6752 219.996 57.6752 222.43Z" fill="black"/>
<path d="M64.766 210.381V213.489H61.9102V210.381H64.766ZM64.766 215.433V229.425H61.9102V215.433H64.766Z" fill="black"/>
<path d="M80.0444 222.43V229.425H77.1487V222.43C77.1487 221.161 76.9822 219.966 76.3951 219.242C75.9946 218.724 75.3876 218.464 74.6102 218.464C74.0866 218.489 73.6463 218.674 73.2655 219.007C72.8451 219.393 72.5516 220.016 72.4246 220.794C72.3214 221.415 72.2976 222.376 72.2976 223.335V229.425H69.4219V215.433H71.9407V216.392C72.8451 215.511 73.9755 215.095 75.0068 215.047C76.2642 214.993 77.6088 215.59 78.5133 216.599C79.8579 218.131 80.0444 219.996 80.0444 222.43Z" fill="black"/>
<path d="M94.4446 215.433V230.38C94.4446 232.324 93.7306 234.033 92.3264 235.016C91.1721 235.819 90.1211 236 89.1373 236C88.4035 236 87.4357 235.74 86.7653 235.379C85.9483 234.884 85.1073 234.033 84.6234 232.994L87.2691 231.413C87.4158 231.751 87.6261 232.011 87.876 232.241C88.233 232.549 88.8002 232.681 89.1571 232.681C89.8077 232.681 90.4781 232.446 90.8985 232.059C91.4221 231.564 91.6125 231.046 91.5927 230.322V228.872C90.7716 229.494 89.768 229.807 88.6733 229.807C87.1818 229.807 85.6904 229.005 84.7702 227.579C83.8023 226.13 83.4453 224.339 83.4453 222.424C83.4453 220.481 83.8856 218.64 84.7702 217.269C85.734 215.791 87.2453 215.041 88.82 215.041C89.9743 215.041 91.0889 215.507 91.9496 216.31V215.429H94.4446V215.433ZM91.1484 225.694C91.6958 224.941 91.9457 223.697 91.9457 222.43C91.9457 221.161 91.6919 219.943 91.1484 219.164C90.6883 218.489 90.014 218.179 89.2365 218.179C88.2925 218.179 87.5586 218.517 87.0747 219.423C86.6742 220.148 86.4679 221.235 86.4679 222.43C86.4679 223.619 86.6345 224.711 87.0351 225.436C87.5189 226.341 88.3361 226.679 89.1334 226.679C89.9505 226.679 90.6446 226.37 91.1484 225.694Z" fill="black"/>
<path d="M105.165 219.966C105.038 219.477 104.661 218.958 104.285 218.724C103.948 218.489 103.527 218.361 103.067 218.361C102.563 218.361 102.123 218.464 101.829 218.674C101.516 218.934 101.452 219.164 101.452 219.32C101.452 219.448 101.496 219.555 101.516 219.634C101.683 219.893 102.147 220.123 102.714 220.334C103.281 220.539 103.931 220.75 104.499 220.931C105.443 221.294 105.99 221.45 106.724 222.2C107.648 223.081 108.132 224.27 108.045 225.699C107.961 227.022 107.375 228.162 106.43 228.912C105.526 229.611 104.435 229.817 103.281 229.817C101.73 229.817 100.405 229.323 99.3541 227.951C98.8305 227.227 98.1999 225.671 98.1562 224.946L100.865 224.119C100.865 224.535 101.076 225.313 101.389 225.699C101.893 226.375 102.587 226.502 103.278 226.502C103.8 226.502 104.534 226.375 104.871 226.037C105.082 225.802 105.125 225.651 105.165 225.391C105.165 225.132 105.122 224.95 104.974 224.77C104.701 224.432 104.178 224.226 103.8 224.094C103.19 223.889 102.603 223.707 101.972 223.496C100.945 223.159 100.314 222.821 99.727 222.253C98.9496 221.529 98.5529 220.388 98.5529 219.404C98.5529 217.641 99.4335 216.241 100.631 215.595C101.512 215.13 102.333 215.022 103.111 215.052C103.888 215.052 104.749 215.257 105.522 215.751C106.636 216.452 107.497 217.666 107.937 219.144L105.165 219.966Z" fill="black"/>
<path d="M130.786 218.669L127.125 224.95C125.499 227.756 124.352 229.675 121.461 229.675C118.513 229.675 117.137 227.27 117.137 224.97C117.137 222.56 118.375 221.083 120.961 219.511C122.508 218.689 123.769 217.768 123.769 216.138C123.769 215.12 123.305 214.17 122.309 214.17C121.405 214.17 120.818 214.948 120.818 216.206C120.818 217.254 121.501 218.125 122.385 219.159L130.897 229.425H127.629L120.223 220.446C119.279 219.305 118.502 218.037 118.502 216.412C118.502 213.94 119.949 211.977 122.306 211.977C124.642 211.977 126.002 213.91 126.002 216.083C126.002 218.228 124.749 219.515 122.227 221.058C120.219 222.174 119.708 223.393 119.708 224.607C119.708 225.875 120.434 227.046 121.731 227.046C123.234 227.046 123.928 226.159 125.641 223.168L128.204 218.673H130.786V218.669Z" fill="black"/>
<path d="M151.722 214.292H146.958V229.425H144.102V214.292H139.338V210.768H151.722V214.292Z" fill="black"/>
<path d="M156.273 225.333C156.737 226.111 157.511 226.522 158.332 226.522C159.173 226.522 159.926 226.106 160.411 225.333C160.493 225.176 160.538 225.019 160.621 224.892L163.456 226.419C163.266 226.806 163.037 227.198 162.786 227.56C161.652 229.112 160.014 229.915 158.335 229.812C156.658 229.709 155.039 229.033 153.992 227.481C153.025 226.032 152.564 224.27 152.608 222.429C152.652 220.486 153.049 218.777 153.992 217.377C155.039 215.849 156.658 215.047 158.335 215.047C160.014 215.047 161.632 215.825 162.683 217.377C163.627 218.777 164.068 220.564 164.068 222.429C164.068 222.743 164.048 223.076 164.024 223.389H155.69C155.769 224.113 155.936 224.789 156.273 225.333ZM156.273 219.526C156.063 219.864 155.916 220.251 155.813 220.667H160.851C160.748 220.251 160.596 219.864 160.411 219.526C159.926 218.724 159.173 218.336 158.332 218.336C157.511 218.336 156.733 218.724 156.273 219.526Z" fill="black"/>
<path d="M175.265 219.996C175.201 219.84 175.118 219.658 175.035 219.531C174.57 218.753 173.797 218.341 172.956 218.341C172.139 218.341 171.362 218.758 170.898 219.531C170.413 220.31 170.267 221.372 170.247 222.434C170.267 223.496 170.413 224.559 170.898 225.338C171.362 226.116 172.135 226.502 172.956 226.502C173.797 226.502 174.57 226.116 175.035 225.338C175.118 225.181 175.181 225.053 175.244 224.897L177.93 226.321C177.739 226.709 177.554 227.1 177.299 227.462C176.249 228.989 174.614 229.847 172.953 229.793C171.294 229.847 169.676 229.014 168.629 227.462C167.684 226.062 167.244 224.329 167.244 222.434C167.244 220.54 167.684 218.806 168.629 217.382C169.719 215.776 171.338 215.052 172.953 215.052C174.63 215.052 176.249 215.855 177.299 217.382C177.55 217.768 177.76 218.16 177.93 218.571L175.265 219.996Z" fill="black"/>
<path d="M192.268 222.429V229.425H189.372V222.429C189.372 221.161 189.206 219.966 188.618 219.242C188.218 218.724 187.611 218.464 186.833 218.464C186.31 218.489 185.869 218.674 185.489 219.007C185.068 219.393 184.775 220.016 184.648 220.794C184.545 221.415 184.521 222.375 184.521 223.335V229.425H181.645V210.773H184.164V216.392C185.068 215.511 186.198 215.095 187.23 215.046C188.487 214.993 189.832 215.59 190.737 216.599C192.077 218.131 192.268 219.996 192.268 222.429Z" fill="black"/>
<path d="M206.915 222.43V229.425H204.02V222.43C204.02 221.161 203.853 219.966 203.266 219.242C202.865 218.724 202.258 218.464 201.481 218.464C200.958 218.489 200.517 218.674 200.136 219.007C199.716 219.393 199.423 220.016 199.295 220.794C199.189 221.415 199.168 222.376 199.168 223.335V229.425H196.293V215.433H198.812V216.392C199.716 215.511 200.847 215.095 201.874 215.047C203.135 214.993 204.476 215.59 205.38 216.599C206.725 218.131 206.915 219.996 206.915 222.43Z" fill="black"/>
<path d="M211.698 227.481C210.731 226.032 210.314 224.348 210.314 222.429C210.314 220.461 210.798 218.724 211.698 217.377C212.745 215.849 214.384 215.047 216.041 215.047C217.72 215.047 219.337 215.825 220.389 217.377C221.396 218.855 221.797 220.539 221.797 222.429C221.797 224.422 221.357 226.003 220.389 227.481C219.318 229.033 217.744 229.812 216.041 229.812C214.364 229.812 212.745 229.009 211.698 227.481ZM218.77 222.429C218.77 221.367 218.6 220.28 218.12 219.502C217.66 218.724 216.883 218.336 216.041 218.336C215.201 218.336 214.427 218.724 213.963 219.502C213.48 220.28 213.332 221.367 213.332 222.429C213.332 223.492 213.48 224.555 213.963 225.333C214.427 226.111 215.201 226.522 216.041 226.522C216.883 226.522 217.66 226.106 218.12 225.333C218.604 224.555 218.77 223.492 218.77 222.429Z" fill="black"/>
<path d="M225.609 229.425V210.381H228.465V229.425H225.609Z" fill="black"/>
<path d="M233.67 227.481C232.702 226.032 232.285 224.348 232.285 222.429C232.285 220.461 232.769 218.724 233.67 217.377C234.716 215.849 236.354 215.047 238.013 215.047C239.691 215.047 241.309 215.825 242.356 217.377C243.364 218.855 243.764 220.539 243.764 222.429C243.764 224.422 243.324 226.003 242.356 227.481C241.285 229.033 239.71 229.812 238.013 229.812C236.335 229.812 234.72 229.009 233.67 227.481ZM240.745 222.429C240.745 221.367 240.575 220.28 240.095 219.502C239.635 218.724 238.858 218.336 238.016 218.336C237.176 218.336 236.402 218.724 235.938 219.502C235.454 220.28 235.308 221.367 235.308 222.429C235.308 223.492 235.454 224.555 235.938 225.333C236.402 226.111 237.176 226.522 238.016 226.522C238.858 226.522 239.635 226.106 240.095 225.333C240.575 224.555 240.745 223.492 240.745 222.429Z" fill="black"/>
<path d="M257.952 215.433V230.38C257.952 232.324 257.238 234.033 255.834 235.016C254.679 235.819 253.629 236 252.645 236C251.911 236 250.943 235.74 250.273 235.379C249.455 234.884 248.615 234.033 248.13 232.994L250.777 231.413C250.923 231.751 251.134 232.011 251.383 232.241C251.74 232.549 252.308 232.681 252.665 232.681C253.315 232.681 253.985 232.446 254.406 232.059C254.93 231.564 255.119 231.046 255.1 230.322V228.872C254.283 229.494 253.275 229.807 252.181 229.807C250.689 229.807 249.198 229.005 248.278 227.579C247.31 226.13 246.953 224.339 246.953 222.424C246.953 220.481 247.393 218.64 248.278 217.269C249.242 215.791 250.752 215.041 252.328 215.041C253.481 215.041 254.597 215.507 255.458 216.31V215.429H257.952V215.433ZM254.655 225.694C255.203 224.941 255.453 223.697 255.453 222.43C255.453 221.161 255.199 219.943 254.655 219.164C254.196 218.489 253.521 218.179 252.744 218.179C251.8 218.179 251.066 218.517 250.582 219.423C250.181 220.148 249.975 221.235 249.975 222.43C249.975 223.619 250.142 224.711 250.543 225.436C251.026 226.341 251.844 226.679 252.641 226.679C253.462 226.679 254.152 226.37 254.655 225.694Z" fill="black"/>
<path d="M265.465 210.381V213.489H262.609V210.381H265.465ZM265.465 215.433V229.425H262.609V215.433H265.465Z" fill="black"/>
<path d="M273.168 225.333C273.633 226.111 274.406 226.522 275.227 226.522C276.068 226.522 276.822 226.106 277.305 225.333C277.389 225.176 277.432 225.019 277.515 224.892L280.352 226.419C280.162 226.806 279.931 227.198 279.681 227.56C278.547 229.112 276.909 229.915 275.231 229.812C273.553 229.709 271.935 229.033 270.887 227.481C269.919 226.032 269.459 224.27 269.503 222.429C269.547 220.486 269.944 218.777 270.887 217.377C271.935 215.849 273.553 215.047 275.231 215.047C276.909 215.047 278.527 215.825 279.578 217.377C280.523 218.777 280.963 220.564 280.963 222.429C280.963 222.743 280.942 223.076 280.919 223.389H272.585C272.661 224.113 272.831 224.789 273.168 225.333ZM273.168 219.526C272.959 219.864 272.811 220.251 272.708 220.667H277.745C277.642 220.251 277.492 219.864 277.305 219.526C276.822 218.724 276.068 218.336 275.227 218.336C274.406 218.336 273.629 218.724 273.168 219.526Z" fill="black"/>
<path d="M290.63 219.966C290.503 219.477 290.126 218.958 289.749 218.724C289.412 218.489 288.991 218.361 288.532 218.361C288.028 218.361 287.587 218.464 287.294 218.674C286.981 218.934 286.917 219.164 286.917 219.32C286.917 219.448 286.957 219.555 286.981 219.634C287.147 219.893 287.612 220.123 288.179 220.334C288.746 220.539 289.397 220.75 289.964 220.931C290.908 221.294 291.455 221.45 292.188 222.2C293.113 223.081 293.597 224.27 293.51 225.699C293.427 227.022 292.839 228.162 291.896 228.912C290.991 229.611 289.9 229.817 288.746 229.817C287.195 229.817 285.871 229.323 284.819 227.951C284.295 227.227 283.664 225.671 283.621 224.946L286.33 224.119C286.33 224.535 286.541 225.313 286.854 225.699C287.357 226.375 288.052 226.502 288.742 226.502C289.266 226.502 290 226.375 290.337 226.037C290.547 225.802 290.59 225.651 290.63 225.391C290.63 225.132 290.586 224.95 290.44 224.77C290.166 224.432 289.642 224.226 289.266 224.094C288.654 223.889 288.068 223.707 287.437 223.496C286.41 223.159 285.779 222.821 285.192 222.253C284.414 221.529 284.018 220.388 284.018 219.404C284.018 217.641 284.898 216.241 286.096 215.595C286.977 215.13 287.798 215.022 288.575 215.052C289.353 215.052 290.213 215.257 290.987 215.751C292.102 216.452 292.963 217.666 293.403 219.144L290.63 219.966Z" fill="black"/>
</g>
<defs>
<clipPath id="clip0_124_1051">
<rect width="333" height="236" fill="white"/>
</clipPath>
</defs>
</svg>
